<?xml version="1.0" encoding="UTF-8" standalone="no"?>
<!-- Created with Inkscape (http://www.inkscape.org/) -->

<svg
   xmlns:dc="http://purl.org/dc/elements/1.1/"
   xmlns:cc="http://creativecommons.org/ns#"
   xmlns:rdf="http://www.w3.org/1999/02/22-rdf-syntax-ns#"
   xmlns:svg="http://www.w3.org/2000/svg"
   xmlns="http://www.w3.org/2000/svg"
   xmlns:sodipodi="http://sodipodi.sourceforge.net/DTD/sodipodi-0.dtd"
   xmlns:inkscape="http://www.inkscape.org/namespaces/inkscape"
   width="29.999998"
   height="30"
   viewBox="0 0 29.999998 29.999999"
   id="svg4454"
   version="1.1"
   inkscape:version="0.91 r13725"
   sodipodi:docname="icons.svg">
  <defs
     id="defs4456" />
  <sodipodi:namedview
     id="base"
     pagecolor="#ffffff"
     bordercolor="#666666"
     borderopacity="1.0"
     inkscape:pageopacity="0.0"
     inkscape:pageshadow="2"
     inkscape:zoom="6.9811454"
     inkscape:cx="8.7928608"
     inkscape:cy="-9.4814969"
     inkscape:document-units="px"
     inkscape:current-layer="layer26"
     showgrid="false"
     inkscape:window-width="1440"
     inkscape:window-height="851"
     inkscape:window-x="0"
     inkscape:window-y="0"
     inkscape:window-maximized="1"
     fit-margin-top="0"
     fit-margin-left="0"
     fit-margin-right="0"
     fit-margin-bottom="0"
     units="px" />
  <metadata
     id="metadata4459">
    <rdf:RDF>
      <cc:Work
         rdf:about="">
        <dc:format>image/svg+xml</dc:format>
        <dc:type
           rdf:resource="http://purl.org/dc/dcmitype/StillImage" />
        <dc:title></dc:title>
      </cc:Work>
    </rdf:RDF>
  </metadata>
  <g
     inkscape:groupmode="layer"
     id="layer26"
     inkscape:label="Background">
    <rect
       style="opacity:1;fill:none;fill-opacity:1;stroke:none;stroke-width:1;stroke-miterlimit:4;stroke-dasharray:none;stroke-opacity:1"
       id="rect11073"
       width="30"
       height="30"
       x="0"
       y="-9.5367432e-07" />
  </g>
  <g
     inkscape:label="Tap"
     inkscape:groupmode="layer"
     id="layer1"
     transform="translate(-73.938735,-297.33928)"
     sodipodi:insensitive="true">
    <g
       id="g10423"
       transform="matrix(1.1429006,0,0,0.7833163,-38.138373,97.057952)">
      <path
         sodipodi:nodetypes="csscsccccscsssscsscsccc"
         inkscape:connector-curvature="0"
         id="path10419"
         d="m 98.063739,275.99912 c 0.21823,-1.49121 0.69857,-2.77328 1.48919,-3.97478 1.405471,-2.13587 3.547471,-3.59515 6.053671,-4.12418 0.58624,-0.12375 1.39786,-0.20443 1.88265,-0.18715 0.2243,0.008 0.40782,0.004 0.40782,-0.01 0,-0.0239 -0.61565,-1.82822 -0.68242,-2 -0.0185,-0.0475 -0.0442,-0.15888 -0.0572,-0.24752 -0.0568,-0.38664 0.2897,-0.75151 0.71544,-0.75346 0.18538,-8.4e-4 0.29942,0.0492 0.57688,0.2532 0.15865,0.11664 1.54064,1.13848 3.22973,2.38805 2.23493,1.65337 2.88416,2.13891 2.88324,2.15627 -5.6e-4,0.0112 -0.18324,0.15902 -0.40588,0.32842 -0.37232,0.28328 -1.18815,0.90873 -4.09765,3.14143 -0.59072,0.4533 -1.24959,0.95848 -1.46416,1.12263 -0.22026,0.1685 -0.45339,0.3175 -0.53541,0.3422 -0.2869,0.0864 -0.61522,-0.0343 -0.7971,-0.29311 -0.17332,-0.2466 -0.1522,-0.37438 0.26981,-1.63259 0.20061,-0.59812 0.36474,-1.10961 0.36474,-1.13665 0,-0.0412 -0.0794,-0.0457 -0.49223,-0.0277 -1.79439,0.0784 -3.2648,0.78825 -4.41066,2.12929 -0.96024,1.12379 -1.47945,2.73568 -1.35445,4.20488 0.65293,3.01264 4.45132,4.57171 6.01343,4.61647 -4.27296,1.54778 -9.280875,-1.32974 -9.589441,-6.2957 z"
         style="fill:#000000" />
      <path
         style="fill:#000000"
         d="m 124.31274,273.66718 c -0.21823,1.49121 -0.69857,2.77328 -1.48919,3.97478 -1.40547,2.13587 -3.54747,3.59515 -6.05367,4.12418 -0.58624,0.12375 -1.39786,0.20443 -1.88265,0.18715 -0.2243,-0.008 -0.40782,-0.004 -0.40782,0.01 0,0.0239 0.61565,1.82822 0.68242,2 0.0185,0.0475 0.0442,0.15888 0.0572,0.24752 0.0568,0.38664 -0.2897,0.75151 -0.71544,0.75346 -0.18538,8.4e-4 -0.29942,-0.0492 -0.57688,-0.2532 -0.15865,-0.11664 -1.54064,-1.13848 -3.22973,-2.38805 -2.23493,-1.65337 -2.88416,-2.13891 -2.88324,-2.15627 5.6e-4,-0.0112 0.18324,-0.15902 0.40588,-0.32842 0.37232,-0.28328 1.18815,-0.90873 4.09765,-3.14143 0.59072,-0.4533 1.24959,-0.95848 1.46416,-1.12263 0.22026,-0.1685 0.45339,-0.3175 0.53541,-0.3422 0.2869,-0.0864 0.61522,0.0343 0.7971,0.29311 0.17332,0.2466 0.1522,0.37438 -0.26981,1.63259 -0.20061,0.59812 -0.36474,1.10961 -0.36474,1.13665 0,0.0412 0.0794,0.0457 0.49223,0.0277 1.79439,-0.0784 3.2648,-0.78825 4.41066,-2.12929 0.96024,-1.12379 1.47945,-2.73568 1.35445,-4.20488 -0.65293,-3.01264 -4.45132,-4.57171 -6.01343,-4.61647 4.27296,-1.54778 9.28087,1.32974 9.58944,6.2957 z"
         id="path10421"
         inkscape:connector-curvature="0"
         sodipodi:nodetypes="csscsccccscsssscsscsccc" />
    </g>
  </g>
  <g
     inkscape:groupmode="layer"
     id="layer24"
     inkscape:label="Energy"
     sodipodi:insensitive="true"
     style="display:none">
    <g
       transform="translate(-98.91217,-337.81421)"
       id="large_energy_icon">
      <circle
         style="opacity:1;fill:#ffcc00;fill-opacity:1;stroke:none;stroke-width:1.03936291;stroke-miterlimit:4;stroke-dasharray:none;stroke-opacity:1"
         id="circle7039"
         cx="113.91217"
         cy="352.81421"
         r="15" />
      <g
         id="g7041"
         style="fill:#ffe680;stroke:none"
         transform="matrix(0.1507836,0,0,0.1507836,88.633166,312.31042)">
        <path
           sodipodi:nodetypes="cssssscc"
           inkscape:connector-curvature="0"
           id="path7043"
           d="m 160.64697,231.8888 c 5.12645,5.30856 7.77754,11.92824 8.81875,22.02012 1.46329,14.18289 7.5738,23.47101 18.8582,28.66488 6.88417,3.16859 19.82001,3.03417 26.54531,-0.2758 18.79463,-9.25016 23.52481,-32.05316 11.73618,-56.57709 -10.75388,-22.37135 -41.81523,-35.08281 -57.65909,-35.78515 -44.10486,-1.9551 -84.87278,44.33899 -91.32405,89.71371 15.22987,-27.95029 55.33951,-77.57799 83.0247,-47.76067 z"
           style="fill:#ffe680;stroke:none" />
        <path
           style="fill:#ffe680;stroke:none"
           d="m 174.65494,305.35492 c -5.12645,-5.30856 -7.77754,-11.92825 -8.81875,-22.02013 -1.46329,-14.18288 -7.5738,-23.471 -18.8582,-28.66487 -6.88417,-3.16859 -19.82001,-3.03418 -26.54531,0.2758 -18.79463,9.25016 -23.524811,32.05316 -11.73618,56.57709 10.75388,22.37135 41.81523,35.08281 57.65909,35.78514 44.10486,1.95511 84.87278,-44.33898 91.32405,-89.7137 -15.22987,27.9503 -55.33951,77.57799 -83.0247,47.76068 z"
           id="path7045"
           inkscape:connector-curvature="0"
           sodipodi:nodetypes="cssssscc" />
      </g>
    </g>
  </g>
  <g
     inkscape:groupmode="layer"
     id="layer25"
     inkscape:label="Energy - Small"
     sodipodi:insensitive="true"
     style="display:none">
    <g
       transform="translate(-68.170639,-338.10217)"
       id="g10751">
      <circle
         r="15"
         cy="353.10217"
         cx="83.170639"
         id="path7512"
         style="opacity:1;fill:#ffcc00;fill-opacity:1;stroke:none;stroke-width:1.03936291;stroke-miterlimit:4;stroke-dasharray:none;stroke-opacity:1" />
      <path
         transform="translate(0.14398848,0.14398848)"
         d="m 83.332031,342.00195 c -3.048287,-0.13512 -6.056334,1.40758 -8.433593,3.85547 -1.22832,1.26481 -2.26689,2.76942 -3.058594,4.3711 0.871455,-1.05415 1.797687,-2.10687 2.83789,-2.92969 1.227958,-0.97134 2.554169,-1.69988 3.957032,-1.85938 1.399955,-0.15916 2.856381,0.33466 4.033203,1.59766 0.899153,0.93375 1.368433,2.15162 1.535156,3.76758 0.20185,1.95643 0.921828,3.02469 2.404297,3.70703 0.350214,0.1612 1.022658,0.28213 1.683594,0.27539 0.660935,-0.007 1.32571,-0.14302 1.662109,-0.30859 1.216603,-0.59878 1.934945,-1.5781 2.203125,-2.8711 0.26818,-1.293 0.04823,-2.91489 -0.783203,-4.64453 -0.710771,-1.47862 -2.160589,-2.72009 -3.738281,-3.58203 -1.577692,-0.86194 -3.289702,-1.334 -4.302735,-1.37891 z"
         id="path10344"
         style="fill:#ffffff;stroke:none"
         inkscape:original="M 83.365234 341.23828 C 76.714945 340.94348 70.568449 347.92387 69.595703 354.76562 C 71.892118 350.55118 77.940762 343.06654 82.115234 347.5625 C 82.888219 348.36294 83.286362 349.36112 83.443359 350.88281 C 83.663999 353.02136 84.585606 354.42193 86.287109 355.20508 C 87.325129 355.68286 89.276951 355.66317 90.291016 355.16406 C 93.124938 353.76929 93.83808 350.33062 92.060547 346.63281 C 90.439039 343.25958 85.754229 341.34418 83.365234 341.23828 z "
         inkscape:radius="-0.76381326"
         sodipodi:type="inkscape:offset" />
      <path
         transform="matrix(-1,0,0,-1,165.47205,706.71632)"
         sodipodi:type="inkscape:offset"
         inkscape:radius="-0.76381326"
         inkscape:original="M 83.365234 341.23828 C 76.714945 340.94348 70.568449 347.92387 69.595703 354.76562 C 71.892118 350.55118 77.940762 343.06654 82.115234 347.5625 C 82.888219 348.36294 83.286362 349.36112 83.443359 350.88281 C 83.663999 353.02136 84.585606 354.42193 86.287109 355.20508 C 87.325129 355.68286 89.276951 355.66317 90.291016 355.16406 C 93.124938 353.76929 93.83808 350.33062 92.060547 346.63281 C 90.439039 343.25958 85.754229 341.34418 83.365234 341.23828 z "
         style="fill:#ffffff;stroke:none"
         id="path10346"
         d="m 83.332031,342.00195 c -3.048287,-0.13512 -6.056334,1.40758 -8.433593,3.85547 -1.22832,1.26481 -2.26689,2.76942 -3.058594,4.3711 0.871455,-1.05415 1.797687,-2.10687 2.83789,-2.92969 1.227958,-0.97134 2.554169,-1.69988 3.957032,-1.85938 1.399955,-0.15916 2.856381,0.33466 4.033203,1.59766 0.899153,0.93375 1.368433,2.15162 1.535156,3.76758 0.20185,1.95643 0.921828,3.02469 2.404297,3.70703 0.350214,0.1612 1.022658,0.28213 1.683594,0.27539 0.660935,-0.007 1.32571,-0.14302 1.662109,-0.30859 1.216603,-0.59878 1.934945,-1.5781 2.203125,-2.8711 0.26818,-1.293 0.04823,-2.91489 -0.783203,-4.64453 -0.710771,-1.47862 -2.160589,-2.72009 -3.738281,-3.58203 -1.577692,-0.86194 -3.289702,-1.334 -4.302735,-1.37891 z" />
    </g>
  </g>
</svg>
